%
M48
M72
T01C0.0236
T02C0.0276
T03C0.0400
T04C0.0472
T05C0.0512
T06C0.1200
%
T01
X14535Y16732
X14968Y18386
X15283Y21456
X19299Y23071
X19968Y23307
X18000Y24685
X15047Y24897
X19023Y27677
X23197Y27126
X24181Y27126
X25126Y26968
X23630Y25197
X24889Y23228
X23039Y22362
X27842Y22283
X29850Y23228
X32645Y22362
X33905Y23346
X34653Y23267
X36031Y24173
X36700Y23543
X37882Y24134
X38511Y23307
X39417Y23346
X37567Y22401
X41622Y23425
X42370Y22362
X43197Y23346
X44338Y23307
X45441Y25590
X46779Y25590
X47567Y25118
X48078Y25551
X47803Y27047
X49811Y25590
X51661Y25000
X47212Y22441
X46740Y18976
X51267Y18346
X52212Y18386
X52488Y16811
X42252Y25590
X40756Y25590
X38826Y25590
X37409Y27204
X38630Y28228
X37921Y28661
X37370Y28937
X39299Y29212
X39063Y27283
X34496Y26574
X33157Y27086
X32370Y27008
X31464Y27086
X32449Y24803
X33354Y24882
X28708Y24685
X28472Y26732
X26543Y29134
X25244Y30945
X28118Y31220
X30992Y30984
X31740Y31220
X33236Y30472
X33905Y30157
X34338Y30511
X34614Y29488
X34102Y29291
X33472Y29252
X32330Y29252
X32330Y29842
X33945Y31732
X33433Y32126
X23118Y28700
T02
X21949Y24862
X20531Y24862
X25382Y24862
X26799Y24862
X30181Y24929
X31598Y24929
X35039Y24913
X36456Y24913
X39949Y24964
X41366Y24964
X44905Y24917
X46323Y24917
X29366Y28130
X29366Y30051
T03
X36472Y31008
X37472Y30908
X38472Y31008
X39472Y30908
X40472Y31008
X41472Y30908
X42039Y28695
X41039Y28595
X40039Y28695
X40031Y27691
X41031Y27591
X42031Y27691
X40593Y18374
X39453Y18374
X35767Y18374
X34627Y18374
X30861Y18389
X29721Y18389
X25967Y18338
X24827Y18338
X21239Y18338
X20099Y18338
X44335Y18413
X45475Y18413
T04
X50008Y24724
X16892Y24836
T05
X21937Y16126
X23315Y16126
X24693Y16126
X26071Y16126
X27449Y16126
X28826Y16126
X36578Y16165
X37956Y16165
X39334Y16165
X40712Y16165
X42090Y16165
X43468Y16165
X44244Y29386
X45622Y29386
X47000Y29386
X48378Y29386
X49756Y29386
X51134Y29386
T06
X51193Y26682
X32511Y17700
X15693Y26660
M30
