G75*
G70*
%OFA0B0*%
%FSLAX24Y24*%
%IPPOS*%
%LPD*%
%AMOC8*
5,1,8,0,0,1.08239X$1,22.5*
%
%ADD10R,0.0710X0.0789*%
%ADD11R,0.0867X0.0789*%
%ADD12R,0.0556X0.0556*%
%ADD13R,0.0277X0.0552*%
%ADD14R,0.0710X0.1655*%
%ADD15R,0.2521X0.2363*%
%ADD16R,0.1419X0.0710*%
%ADD17R,0.0474X0.2363*%
%ADD18R,0.0552X0.0552*%
%ADD19C,0.0848*%
%ADD20C,0.0820*%
%ADD21R,0.0474X0.0592*%
%ADD22R,0.0580X0.0330*%
%ADD23R,0.0330X0.0580*%
%ADD24C,0.1280*%
%ADD25R,0.2915X0.0867*%
%ADD26R,0.0237X0.0552*%
%ADD27R,0.0552X0.0237*%
%ADD28R,0.0592X0.0474*%
%ADD29C,0.0789*%
D10*
X022378Y020236D03*
X022378Y021850D03*
X027220Y021826D03*
X027220Y020212D03*
X032078Y020248D03*
X032078Y021862D03*
X036909Y021870D03*
X036909Y020256D03*
X041771Y020244D03*
X041771Y021858D03*
X046641Y021795D03*
X046641Y020181D03*
D11*
X045535Y019677D03*
X044275Y019677D03*
X040653Y019689D03*
X039393Y019689D03*
X035826Y019716D03*
X034567Y019716D03*
X030976Y019704D03*
X029716Y019704D03*
X026094Y019685D03*
X024834Y019685D03*
X021307Y019697D03*
X020047Y019697D03*
D12*
X020531Y024862D03*
X021949Y024862D03*
X025382Y024862D03*
X026799Y024862D03*
X030181Y024929D03*
X031598Y024929D03*
X035039Y024913D03*
X036456Y024913D03*
X039949Y024964D03*
X041366Y024964D03*
X044905Y024917D03*
X046323Y024917D03*
X029366Y028130D03*
X029366Y030051D03*
D13*
X029819Y022386D03*
X030409Y022386D03*
X031000Y022386D03*
X031000Y020811D03*
X029819Y020811D03*
X026141Y020783D03*
X024960Y020783D03*
X024960Y022358D03*
X025551Y022358D03*
X026141Y022358D03*
X021326Y022346D03*
X020736Y022346D03*
X020145Y022346D03*
X020145Y020771D03*
X021326Y020771D03*
X034665Y020838D03*
X035846Y020838D03*
X035846Y022413D03*
X035256Y022413D03*
X034665Y022413D03*
X039508Y022409D03*
X040098Y022409D03*
X040689Y022409D03*
X040689Y020834D03*
X039508Y020834D03*
X044326Y020850D03*
X045508Y020850D03*
X045508Y022425D03*
X044917Y022425D03*
X044326Y022425D03*
D14*
X044917Y021401D03*
X040098Y021386D03*
X035256Y021389D03*
X030409Y021362D03*
X025551Y021334D03*
X020736Y021323D03*
D15*
X019236Y029574D03*
D16*
X022149Y028708D03*
X022149Y030441D03*
D17*
X017819Y029574D03*
D18*
X017602Y027681D03*
X018389Y027681D03*
X023819Y030949D03*
X024606Y030949D03*
X030996Y030405D03*
X030996Y029618D03*
X036015Y028941D03*
X036803Y028941D03*
X043118Y027126D03*
X043905Y027126D03*
D19*
X044244Y029386D03*
X045622Y029386D03*
X047000Y029386D03*
X048378Y029386D03*
X049756Y029386D03*
X051134Y029386D03*
X043468Y016165D03*
X042090Y016165D03*
X040712Y016165D03*
X039334Y016165D03*
X037956Y016165D03*
X036578Y016165D03*
X028826Y016126D03*
X027449Y016126D03*
X026071Y016126D03*
X024693Y016126D03*
X023315Y016126D03*
X021937Y016126D03*
D20*
X021239Y018338D03*
X020099Y018338D03*
X024827Y018338D03*
X025967Y018338D03*
X029721Y018389D03*
X030861Y018389D03*
X034627Y018374D03*
X035767Y018374D03*
X039453Y018374D03*
X040593Y018374D03*
X044335Y018413D03*
X045475Y018413D03*
X042031Y027691D03*
X041031Y027591D03*
X040031Y027691D03*
X040039Y028695D03*
X041039Y028595D03*
X042039Y028695D03*
X041472Y030908D03*
X040472Y031008D03*
X039472Y030908D03*
X038472Y031008D03*
X037472Y030908D03*
X036472Y031008D03*
D21*
X047850Y018952D03*
X047850Y018204D03*
X046693Y018326D03*
X046693Y017578D03*
D22*
X047878Y020078D03*
X047878Y020433D03*
D23*
X048846Y019256D03*
X049200Y019256D03*
D24*
X051193Y026682D03*
X032511Y017700D03*
X015693Y026660D03*
D25*
X015996Y015984D03*
X015996Y017559D03*
X015996Y019134D03*
X015996Y020708D03*
X015996Y022283D03*
X015996Y023858D03*
X051027Y023858D03*
X051027Y022283D03*
X051027Y020708D03*
X051027Y019134D03*
X051027Y017559D03*
X051027Y015984D03*
D26*
X034574Y027665D03*
X034260Y027665D03*
X033945Y027665D03*
X033630Y027665D03*
X033315Y027665D03*
X033000Y027665D03*
X032685Y027665D03*
X032370Y027665D03*
X032370Y031051D03*
X032685Y031051D03*
X033000Y031051D03*
X033315Y031051D03*
X033630Y031051D03*
X033945Y031051D03*
X034260Y031051D03*
X034574Y031051D03*
D27*
X035165Y030460D03*
X035165Y030145D03*
X035165Y029830D03*
X035165Y029515D03*
X035165Y029200D03*
X035165Y028886D03*
X035165Y028571D03*
X035165Y028256D03*
X031779Y028256D03*
X031779Y028571D03*
X031779Y028886D03*
X031779Y029200D03*
X031779Y029515D03*
X031779Y029830D03*
X031779Y030145D03*
X031779Y030460D03*
D28*
X027972Y029693D03*
X027224Y029693D03*
X027236Y028535D03*
X027984Y028535D03*
D29*
X016892Y024836D03*
X050008Y024724D03*
M02*
