G75*
G70*
%OFA0B0*%
%FSLAX24Y24*%
%IPPOS*%
%LPD*%
%AMOC8*
5,1,8,0,0,1.08239X$1,22.5*
%
%ADD10C,0.0050*%
D10*
X019224Y019015D02*
X018634Y019606D01*
X018634Y022283D01*
X019224Y022874D01*
X021980Y022874D01*
X022571Y022283D01*
X022571Y019606D01*
X021980Y019015D01*
X019224Y019015D01*
X023452Y019606D02*
X023452Y022283D01*
X024043Y022874D01*
X026799Y022874D01*
X027389Y022283D01*
X027389Y019606D01*
X026799Y019015D01*
X024043Y019015D01*
X023452Y019606D01*
X028311Y019634D02*
X028311Y022311D01*
X028901Y022901D01*
X031657Y022901D01*
X032248Y022311D01*
X032248Y019634D01*
X031657Y019043D01*
X028901Y019043D01*
X028311Y019634D01*
X033161Y019641D02*
X033752Y019051D01*
X036508Y019051D01*
X037098Y019641D01*
X037098Y022319D01*
X036508Y022909D01*
X033752Y022909D01*
X033161Y022319D01*
X033161Y019641D01*
X038015Y019641D02*
X038606Y019051D01*
X041362Y019051D01*
X041952Y019641D01*
X041952Y022319D01*
X041362Y022909D01*
X038606Y022909D01*
X038015Y022319D01*
X038015Y019641D01*
X042878Y019657D02*
X043468Y019067D01*
X046224Y019067D01*
X046815Y019657D01*
X046815Y022334D01*
X046224Y022925D01*
X043468Y022925D01*
X042878Y022334D01*
X042878Y019657D01*
M02*
