G75*
G70*
%OFA0B0*%
%FSLAX24Y24*%
%IPPOS*%
%LPD*%
%AMOC8*
5,1,8,0,0,1.08239X$1,22.5*
%
%ADD10R,0.0749X0.1497*%
%ADD11R,0.0556X0.0556*%
%ADD12C,0.0848*%
%ADD13C,0.0820*%
%ADD14C,0.1280*%
%ADD15C,0.0789*%
D10*
X018830Y020945D03*
X022374Y020945D03*
X023649Y020945D03*
X027193Y020945D03*
X028508Y020972D03*
X032051Y020972D03*
X033358Y020980D03*
X036901Y020980D03*
X038212Y020980D03*
X041756Y020980D03*
X043074Y020996D03*
X046618Y020996D03*
D11*
X046323Y024917D03*
X044905Y024917D03*
X041366Y024964D03*
X039949Y024964D03*
X036456Y024913D03*
X035039Y024913D03*
X031598Y024929D03*
X030181Y024929D03*
X026799Y024862D03*
X025382Y024862D03*
X021949Y024862D03*
X020531Y024862D03*
X029366Y028130D03*
X029366Y030051D03*
D12*
X021937Y016126D03*
X023315Y016126D03*
X024693Y016126D03*
X026071Y016126D03*
X027449Y016126D03*
X028826Y016126D03*
X036578Y016165D03*
X037956Y016165D03*
X039334Y016165D03*
X040712Y016165D03*
X042090Y016165D03*
X043468Y016165D03*
X044244Y029386D03*
X045622Y029386D03*
X047000Y029386D03*
X048378Y029386D03*
X049756Y029386D03*
X051134Y029386D03*
D13*
X042039Y028695D03*
X041039Y028595D03*
X040039Y028695D03*
X040031Y027691D03*
X041031Y027591D03*
X042031Y027691D03*
X041472Y030908D03*
X040472Y031008D03*
X039472Y030908D03*
X038472Y031008D03*
X037472Y030908D03*
X036472Y031008D03*
X035767Y018374D03*
X034627Y018374D03*
X030861Y018389D03*
X029721Y018389D03*
X025967Y018338D03*
X024827Y018338D03*
X021239Y018338D03*
X020099Y018338D03*
X039453Y018374D03*
X040593Y018374D03*
X044335Y018413D03*
X045475Y018413D03*
D14*
X051193Y026682D03*
X032511Y017700D03*
X015693Y026660D03*
D15*
X016892Y024836D03*
X050008Y024724D03*
M02*
