G75*
G70*
%OFA0B0*%
%FSLAX24Y24*%
%IPPOS*%
%LPD*%
%AMOC8*
5,1,8,0,0,1.08239X$1,22.5*
%
%ADD10R,0.0630X0.0709*%
%ADD11R,0.0787X0.0709*%
%ADD12R,0.0197X0.0472*%
%ADD13R,0.0630X0.1575*%
%ADD14R,0.2441X0.2283*%
%ADD15R,0.1339X0.0630*%
%ADD16R,0.0394X0.2283*%
%ADD17R,0.0472X0.0472*%
%ADD18R,0.0394X0.0512*%
%ADD19R,0.2835X0.0787*%
%ADD20R,0.0157X0.0472*%
%ADD21R,0.0472X0.0157*%
%ADD22R,0.0512X0.0394*%
D10*
X022378Y020236D03*
X022378Y021850D03*
X027220Y021826D03*
X027220Y020212D03*
X032078Y020248D03*
X032078Y021862D03*
X036909Y021870D03*
X036909Y020256D03*
X041771Y020244D03*
X041771Y021858D03*
X046641Y021795D03*
X046641Y020181D03*
D11*
X045535Y019677D03*
X044275Y019677D03*
X040653Y019689D03*
X039393Y019689D03*
X035826Y019716D03*
X034567Y019716D03*
X030976Y019704D03*
X029716Y019704D03*
X026094Y019685D03*
X024834Y019685D03*
X021307Y019697D03*
X020047Y019697D03*
D12*
X020145Y020771D03*
X021326Y020771D03*
X021326Y022346D03*
X020736Y022346D03*
X020145Y022346D03*
X024960Y022358D03*
X025551Y022358D03*
X026141Y022358D03*
X026141Y020783D03*
X024960Y020783D03*
X029819Y020811D03*
X031000Y020811D03*
X031000Y022386D03*
X030409Y022386D03*
X029819Y022386D03*
X034665Y022413D03*
X035256Y022413D03*
X035846Y022413D03*
X035846Y020838D03*
X034665Y020838D03*
X039508Y020834D03*
X040689Y020834D03*
X040689Y022409D03*
X040098Y022409D03*
X039508Y022409D03*
X044326Y022425D03*
X044917Y022425D03*
X045508Y022425D03*
X045508Y020850D03*
X044326Y020850D03*
D13*
X044917Y021401D03*
X040098Y021386D03*
X035256Y021389D03*
X030409Y021362D03*
X025551Y021334D03*
X020736Y021323D03*
D14*
X019236Y029574D03*
D15*
X022149Y028708D03*
X022149Y030441D03*
D16*
X017819Y029574D03*
D17*
X017602Y027681D03*
X018389Y027681D03*
X023819Y030949D03*
X024606Y030949D03*
X030996Y030405D03*
X030996Y029618D03*
X036015Y028941D03*
X036803Y028941D03*
X043118Y027126D03*
X043905Y027126D03*
D18*
X047850Y018952D03*
X047850Y018204D03*
X046693Y018326D03*
X046693Y017578D03*
D19*
X015996Y015984D03*
X015996Y017559D03*
X015996Y019134D03*
X015996Y020708D03*
X015996Y022283D03*
X015996Y023858D03*
X051027Y023858D03*
X051027Y022283D03*
X051027Y020708D03*
X051027Y019134D03*
X051027Y017559D03*
X051027Y015984D03*
D20*
X034574Y027665D03*
X034260Y027665D03*
X033945Y027665D03*
X033630Y027665D03*
X033315Y027665D03*
X033000Y027665D03*
X032685Y027665D03*
X032370Y027665D03*
X032370Y031051D03*
X032685Y031051D03*
X033000Y031051D03*
X033315Y031051D03*
X033630Y031051D03*
X033945Y031051D03*
X034260Y031051D03*
X034574Y031051D03*
D21*
X035165Y030460D03*
X035165Y030145D03*
X035165Y029830D03*
X035165Y029515D03*
X035165Y029200D03*
X035165Y028886D03*
X035165Y028571D03*
X035165Y028256D03*
X031779Y028256D03*
X031779Y028571D03*
X031779Y028886D03*
X031779Y029200D03*
X031779Y029515D03*
X031779Y029830D03*
X031779Y030145D03*
X031779Y030460D03*
D22*
X027972Y029693D03*
X027224Y029693D03*
X027236Y028535D03*
X027984Y028535D03*
M02*
