G75*
G70*
%OFA0B0*%
%FSLAX24Y24*%
%IPPOS*%
%LPD*%
%AMOC8*
5,1,8,0,0,1.08239X$1,22.5*
%
%ADD10C,0.0000*%
%ADD11R,0.0630X0.0709*%
%ADD12R,0.0787X0.0709*%
%ADD13R,0.0476X0.0476*%
%ADD14R,0.0197X0.0472*%
%ADD15R,0.0630X0.1575*%
%ADD16R,0.2441X0.2283*%
%ADD17R,0.1339X0.0630*%
%ADD18R,0.0394X0.2283*%
%ADD19R,0.0472X0.0472*%
%ADD20C,0.0768*%
%ADD21C,0.0740*%
%ADD22R,0.0394X0.0512*%
%ADD23R,0.0500X0.0250*%
%ADD24R,0.0250X0.0500*%
%ADD25R,0.2835X0.0787*%
%ADD26R,0.0157X0.0472*%
%ADD27R,0.0472X0.0157*%
%ADD28R,0.0512X0.0394*%
%ADD29C,0.0396*%
%ADD30C,0.0320*%
%ADD31C,0.0709*%
%ADD32C,0.0760*%
%ADD33C,0.0160*%
%ADD34C,0.0120*%
%ADD35C,0.0197*%
D10*
X014181Y014685D02*
X014181Y032480D01*
X052842Y032480D01*
X052842Y014685D01*
X014181Y014685D01*
X015093Y026660D02*
X015095Y026709D01*
X015101Y026757D01*
X015111Y026805D01*
X015125Y026852D01*
X015142Y026898D01*
X015163Y026942D01*
X015188Y026984D01*
X015216Y027024D01*
X015248Y027062D01*
X015282Y027097D01*
X015319Y027129D01*
X015358Y027158D01*
X015400Y027184D01*
X015444Y027206D01*
X015489Y027224D01*
X015536Y027239D01*
X015583Y027250D01*
X015632Y027257D01*
X015681Y027260D01*
X015730Y027259D01*
X015778Y027254D01*
X015827Y027245D01*
X015874Y027232D01*
X015920Y027215D01*
X015964Y027195D01*
X016007Y027171D01*
X016048Y027144D01*
X016086Y027113D01*
X016122Y027080D01*
X016154Y027044D01*
X016184Y027005D01*
X016211Y026964D01*
X016234Y026920D01*
X016253Y026875D01*
X016269Y026829D01*
X016281Y026782D01*
X016289Y026733D01*
X016293Y026684D01*
X016293Y026636D01*
X016289Y026587D01*
X016281Y026538D01*
X016269Y026491D01*
X016253Y026445D01*
X016234Y026400D01*
X016211Y026356D01*
X016184Y026315D01*
X016154Y026276D01*
X016122Y026240D01*
X016086Y026207D01*
X016048Y026176D01*
X016007Y026149D01*
X015964Y026125D01*
X015920Y026105D01*
X015874Y026088D01*
X015827Y026075D01*
X015778Y026066D01*
X015730Y026061D01*
X015681Y026060D01*
X015632Y026063D01*
X015583Y026070D01*
X015536Y026081D01*
X015489Y026096D01*
X015444Y026114D01*
X015400Y026136D01*
X015358Y026162D01*
X015319Y026191D01*
X015282Y026223D01*
X015248Y026258D01*
X015216Y026296D01*
X015188Y026336D01*
X015163Y026378D01*
X015142Y026422D01*
X015125Y026468D01*
X015111Y026515D01*
X015101Y026563D01*
X015095Y026611D01*
X015093Y026660D01*
X031911Y017700D02*
X031913Y017749D01*
X031919Y017797D01*
X031929Y017845D01*
X031943Y017892D01*
X031960Y017938D01*
X031981Y017982D01*
X032006Y018024D01*
X032034Y018064D01*
X032066Y018102D01*
X032100Y018137D01*
X032137Y018169D01*
X032176Y018198D01*
X032218Y018224D01*
X032262Y018246D01*
X032307Y018264D01*
X032354Y018279D01*
X032401Y018290D01*
X032450Y018297D01*
X032499Y018300D01*
X032548Y018299D01*
X032596Y018294D01*
X032645Y018285D01*
X032692Y018272D01*
X032738Y018255D01*
X032782Y018235D01*
X032825Y018211D01*
X032866Y018184D01*
X032904Y018153D01*
X032940Y018120D01*
X032972Y018084D01*
X033002Y018045D01*
X033029Y018004D01*
X033052Y017960D01*
X033071Y017915D01*
X033087Y017869D01*
X033099Y017822D01*
X033107Y017773D01*
X033111Y017724D01*
X033111Y017676D01*
X033107Y017627D01*
X033099Y017578D01*
X033087Y017531D01*
X033071Y017485D01*
X033052Y017440D01*
X033029Y017396D01*
X033002Y017355D01*
X032972Y017316D01*
X032940Y017280D01*
X032904Y017247D01*
X032866Y017216D01*
X032825Y017189D01*
X032782Y017165D01*
X032738Y017145D01*
X032692Y017128D01*
X032645Y017115D01*
X032596Y017106D01*
X032548Y017101D01*
X032499Y017100D01*
X032450Y017103D01*
X032401Y017110D01*
X032354Y017121D01*
X032307Y017136D01*
X032262Y017154D01*
X032218Y017176D01*
X032176Y017202D01*
X032137Y017231D01*
X032100Y017263D01*
X032066Y017298D01*
X032034Y017336D01*
X032006Y017376D01*
X031981Y017418D01*
X031960Y017462D01*
X031943Y017508D01*
X031929Y017555D01*
X031919Y017603D01*
X031913Y017651D01*
X031911Y017700D01*
X050593Y026682D02*
X050595Y026731D01*
X050601Y026779D01*
X050611Y026827D01*
X050625Y026874D01*
X050642Y026920D01*
X050663Y026964D01*
X050688Y027006D01*
X050716Y027046D01*
X050748Y027084D01*
X050782Y027119D01*
X050819Y027151D01*
X050858Y027180D01*
X050900Y027206D01*
X050944Y027228D01*
X050989Y027246D01*
X051036Y027261D01*
X051083Y027272D01*
X051132Y027279D01*
X051181Y027282D01*
X051230Y027281D01*
X051278Y027276D01*
X051327Y027267D01*
X051374Y027254D01*
X051420Y027237D01*
X051464Y027217D01*
X051507Y027193D01*
X051548Y027166D01*
X051586Y027135D01*
X051622Y027102D01*
X051654Y027066D01*
X051684Y027027D01*
X051711Y026986D01*
X051734Y026942D01*
X051753Y026897D01*
X051769Y026851D01*
X051781Y026804D01*
X051789Y026755D01*
X051793Y026706D01*
X051793Y026658D01*
X051789Y026609D01*
X051781Y026560D01*
X051769Y026513D01*
X051753Y026467D01*
X051734Y026422D01*
X051711Y026378D01*
X051684Y026337D01*
X051654Y026298D01*
X051622Y026262D01*
X051586Y026229D01*
X051548Y026198D01*
X051507Y026171D01*
X051464Y026147D01*
X051420Y026127D01*
X051374Y026110D01*
X051327Y026097D01*
X051278Y026088D01*
X051230Y026083D01*
X051181Y026082D01*
X051132Y026085D01*
X051083Y026092D01*
X051036Y026103D01*
X050989Y026118D01*
X050944Y026136D01*
X050900Y026158D01*
X050858Y026184D01*
X050819Y026213D01*
X050782Y026245D01*
X050748Y026280D01*
X050716Y026318D01*
X050688Y026358D01*
X050663Y026400D01*
X050642Y026444D01*
X050625Y026490D01*
X050611Y026537D01*
X050601Y026585D01*
X050595Y026633D01*
X050593Y026682D01*
D11*
X046641Y021795D03*
X046641Y020181D03*
X041771Y020244D03*
X041771Y021858D03*
X036909Y021870D03*
X036909Y020256D03*
X032078Y020248D03*
X032078Y021862D03*
X027220Y021826D03*
X027220Y020212D03*
X022378Y020236D03*
X022378Y021850D03*
D12*
X021307Y019697D03*
X020047Y019697D03*
X024834Y019685D03*
X026094Y019685D03*
X029716Y019704D03*
X030976Y019704D03*
X034567Y019716D03*
X035826Y019716D03*
X039393Y019689D03*
X040653Y019689D03*
X044275Y019677D03*
X045535Y019677D03*
D13*
X044905Y024917D03*
X046323Y024917D03*
X041366Y024964D03*
X039949Y024964D03*
X036456Y024913D03*
X035039Y024913D03*
X031598Y024929D03*
X030181Y024929D03*
X026799Y024862D03*
X025382Y024862D03*
X021949Y024862D03*
X020531Y024862D03*
X029366Y028130D03*
X029366Y030051D03*
D14*
X029819Y022386D03*
X030409Y022386D03*
X031000Y022386D03*
X031000Y020811D03*
X029819Y020811D03*
X026141Y020783D03*
X024960Y020783D03*
X024960Y022358D03*
X025551Y022358D03*
X026141Y022358D03*
X021326Y022346D03*
X020736Y022346D03*
X020145Y022346D03*
X020145Y020771D03*
X021326Y020771D03*
X034665Y020838D03*
X035846Y020838D03*
X035846Y022413D03*
X035256Y022413D03*
X034665Y022413D03*
X039508Y022409D03*
X040098Y022409D03*
X040689Y022409D03*
X040689Y020834D03*
X039508Y020834D03*
X044326Y020850D03*
X045508Y020850D03*
X045508Y022425D03*
X044917Y022425D03*
X044326Y022425D03*
D15*
X044917Y021401D03*
X040098Y021386D03*
X035256Y021389D03*
X030409Y021362D03*
X025551Y021334D03*
X020736Y021323D03*
D16*
X019236Y029574D03*
D17*
X022149Y028708D03*
X022149Y030441D03*
D18*
X017819Y029574D03*
D19*
X017602Y027681D03*
X018389Y027681D03*
X023819Y030949D03*
X024606Y030949D03*
X030996Y030405D03*
X030996Y029618D03*
X036015Y028941D03*
X036803Y028941D03*
X043118Y027126D03*
X043905Y027126D03*
D20*
X044244Y029386D03*
X045622Y029386D03*
X047000Y029386D03*
X048378Y029386D03*
X049756Y029386D03*
X051134Y029386D03*
X043468Y016165D03*
X042090Y016165D03*
X040712Y016165D03*
X039334Y016165D03*
X037956Y016165D03*
X036578Y016165D03*
X028826Y016126D03*
X027449Y016126D03*
X026071Y016126D03*
X024693Y016126D03*
X023315Y016126D03*
X021937Y016126D03*
D21*
X021239Y018338D03*
X020099Y018338D03*
X024827Y018338D03*
X025967Y018338D03*
X029721Y018389D03*
X030861Y018389D03*
X034627Y018374D03*
X035767Y018374D03*
X039453Y018374D03*
X040593Y018374D03*
X044335Y018413D03*
X045475Y018413D03*
X042031Y027691D03*
X041031Y027591D03*
X040031Y027691D03*
X040039Y028695D03*
X041039Y028595D03*
X042039Y028695D03*
X041472Y030908D03*
X040472Y031008D03*
X039472Y030908D03*
X038472Y031008D03*
X037472Y030908D03*
X036472Y031008D03*
D22*
X047850Y018952D03*
X047850Y018204D03*
X046693Y018326D03*
X046693Y017578D03*
D23*
X047878Y020078D03*
X047878Y020433D03*
D24*
X048846Y019256D03*
X049200Y019256D03*
D25*
X051027Y019134D03*
X051027Y017559D03*
X051027Y015984D03*
X051027Y020708D03*
X051027Y022283D03*
X051027Y023858D03*
X015996Y023858D03*
X015996Y022283D03*
X015996Y020708D03*
X015996Y019134D03*
X015996Y017559D03*
X015996Y015984D03*
D26*
X032370Y027665D03*
X032685Y027665D03*
X033000Y027665D03*
X033315Y027665D03*
X033630Y027665D03*
X033945Y027665D03*
X034260Y027665D03*
X034574Y027665D03*
X034574Y031051D03*
X034260Y031051D03*
X033945Y031051D03*
X033630Y031051D03*
X033315Y031051D03*
X033000Y031051D03*
X032685Y031051D03*
X032370Y031051D03*
D27*
X031779Y030460D03*
X031779Y030145D03*
X031779Y029830D03*
X031779Y029515D03*
X031779Y029200D03*
X031779Y028886D03*
X031779Y028571D03*
X031779Y028256D03*
X035165Y028256D03*
X035165Y028571D03*
X035165Y028886D03*
X035165Y029200D03*
X035165Y029515D03*
X035165Y029830D03*
X035165Y030145D03*
X035165Y030460D03*
D28*
X027972Y029693D03*
X027224Y029693D03*
X027236Y028535D03*
X027984Y028535D03*
D29*
X026543Y029134D03*
X025244Y030945D03*
X028118Y031220D03*
X030992Y030984D03*
X031740Y031220D03*
X033236Y030472D03*
X033905Y030157D03*
X034338Y030511D03*
X034614Y029488D03*
X034102Y029291D03*
X033472Y029252D03*
X032330Y029252D03*
X032330Y029842D03*
X033945Y031732D03*
X033433Y032126D03*
X037370Y028937D03*
X037921Y028661D03*
X038630Y028228D03*
X039063Y027283D03*
X037409Y027204D03*
X038826Y025590D03*
X037882Y024134D03*
X038511Y023307D03*
X039417Y023346D03*
X037567Y022401D03*
X036700Y023543D03*
X036031Y024173D03*
X034653Y023267D03*
X033905Y023346D03*
X032645Y022362D03*
X029850Y023228D03*
X027842Y022283D03*
X024889Y023228D03*
X023039Y022362D03*
X019968Y023307D03*
X019299Y023071D03*
X018000Y024685D03*
X015047Y024897D03*
X019023Y027677D03*
X023197Y027126D03*
X024181Y027126D03*
X025126Y026968D03*
X023630Y025197D03*
X028472Y026732D03*
X028708Y024685D03*
X031464Y027086D03*
X032370Y027008D03*
X033157Y027086D03*
X034496Y026574D03*
X033354Y024882D03*
X032449Y024803D03*
X039299Y029212D03*
X040756Y025590D03*
X042252Y025590D03*
X041622Y023425D03*
X042370Y022362D03*
X043197Y023346D03*
X044338Y023307D03*
X045441Y025590D03*
X046779Y025590D03*
X047567Y025118D03*
X048078Y025551D03*
X047803Y027047D03*
X049811Y025590D03*
X051661Y025000D03*
X047212Y022441D03*
X046740Y018976D03*
X051267Y018346D03*
X052212Y018386D03*
X052488Y016811D03*
X023118Y028700D03*
X015283Y021456D03*
X014968Y018386D03*
X014535Y016732D03*
D30*
X021425Y017282D02*
X021550Y017263D01*
X021674Y017238D01*
X021797Y017207D01*
X021919Y017171D01*
X022038Y017129D01*
X022156Y017081D01*
X022271Y017028D01*
X022383Y016969D01*
X022493Y016906D01*
X022600Y016837D01*
X022703Y016763D01*
X022802Y016685D01*
X022898Y016602D01*
X022990Y016514D01*
X023078Y016423D01*
X023161Y016327D01*
X023240Y016228D01*
X023314Y016125D01*
X020099Y018338D02*
X020065Y018458D01*
X020037Y018580D01*
X020014Y018703D01*
X019998Y018827D01*
X019987Y018951D01*
X019982Y019076D01*
X019983Y019201D01*
X019990Y019326D01*
X020003Y019450D01*
X020022Y019574D01*
X020046Y019696D01*
X020047Y019697D02*
X020145Y020771D01*
X020736Y021323D02*
X020736Y022346D01*
X021326Y022346D02*
X021661Y022362D01*
X021714Y022363D01*
X021767Y022359D01*
X021819Y022352D01*
X021870Y022341D01*
X021921Y022326D01*
X021970Y022308D01*
X022018Y022285D01*
X022064Y022260D01*
X022108Y022231D01*
X022150Y022198D01*
X022189Y022163D01*
X022226Y022125D01*
X022259Y022084D01*
X022290Y022041D01*
X022317Y021996D01*
X022341Y021949D01*
X022361Y021900D01*
X022378Y021850D01*
X023039Y022362D01*
X023473Y022835D02*
X023516Y022789D01*
X023557Y022741D01*
X023595Y022690D01*
X023630Y022637D01*
X023661Y022582D01*
X023689Y022525D01*
X023713Y022467D01*
X023734Y022407D01*
X023751Y022346D01*
X023764Y022284D01*
X023773Y022222D01*
X023779Y022158D01*
X023780Y022095D01*
X023777Y022032D01*
X023771Y021969D01*
X023761Y021907D01*
X023747Y021845D01*
X023729Y021784D01*
X023707Y021725D01*
X023682Y021667D01*
X023653Y021610D01*
X023621Y021556D01*
X023585Y021504D01*
X023546Y021454D01*
X023505Y021406D01*
X023460Y021361D01*
X023413Y021319D01*
X023363Y021280D01*
X023311Y021244D01*
X023256Y021212D01*
X023200Y021183D01*
X023142Y021157D01*
X023083Y021135D01*
X023022Y021117D01*
X022961Y021102D01*
X022960Y021102D02*
X021326Y020771D01*
X021307Y019697D01*
X022378Y020236D01*
X026094Y019685D02*
X026105Y019515D01*
X026108Y019346D01*
X026103Y019176D01*
X026091Y019006D01*
X026072Y018837D01*
X026044Y018670D01*
X026009Y018503D01*
X025967Y018339D01*
X024827Y018338D02*
X024799Y018471D01*
X024777Y018605D01*
X024762Y018740D01*
X024753Y018876D01*
X024750Y019012D01*
X024754Y019148D01*
X024764Y019283D01*
X024781Y019418D01*
X024804Y019552D01*
X024834Y019685D01*
X024960Y020783D01*
X025551Y021334D02*
X025551Y022358D01*
X026141Y022358D02*
X026425Y022362D01*
X026482Y022361D01*
X026538Y022356D01*
X026594Y022347D01*
X026649Y022335D01*
X026704Y022318D01*
X026757Y022299D01*
X026808Y022275D01*
X026858Y022248D01*
X026906Y022218D01*
X026952Y022185D01*
X026996Y022149D01*
X027037Y022110D01*
X027075Y022068D01*
X027110Y022024D01*
X027143Y021978D01*
X027172Y021929D01*
X027198Y021879D01*
X027220Y021826D01*
X027842Y022283D01*
X028354Y022637D02*
X028394Y022590D01*
X028430Y022541D01*
X028463Y022489D01*
X028493Y022435D01*
X028519Y022379D01*
X028542Y022322D01*
X028560Y022263D01*
X028575Y022203D01*
X028587Y022143D01*
X028594Y022082D01*
X028597Y022020D01*
X028596Y021959D01*
X028591Y021897D01*
X028582Y021836D01*
X028570Y021776D01*
X028553Y021717D01*
X028533Y021659D01*
X028509Y021602D01*
X028481Y021547D01*
X028450Y021494D01*
X028415Y021443D01*
X028378Y021394D01*
X028337Y021348D01*
X028293Y021305D01*
X028247Y021264D01*
X028198Y021227D01*
X028147Y021193D01*
X028093Y021162D01*
X028038Y021135D01*
X027981Y021111D01*
X027923Y021091D01*
X027863Y021075D01*
X027803Y021063D01*
X026141Y020783D01*
X026094Y019685D01*
X027220Y020212D01*
X030976Y019704D02*
X030990Y019538D01*
X030996Y019373D01*
X030994Y019207D01*
X030983Y019041D01*
X030965Y018876D01*
X030938Y018712D01*
X030903Y018550D01*
X030861Y018389D01*
X035767Y018374D02*
X035802Y018563D01*
X035827Y018754D01*
X035844Y018946D01*
X035853Y019139D01*
X035853Y019332D01*
X035844Y019524D01*
X035827Y019716D01*
X035826Y019716D02*
X036909Y020256D01*
X045597Y019409D02*
X045571Y019076D01*
X045530Y018744D01*
X045475Y018413D01*
X044335Y018413D02*
X044303Y018483D01*
X044274Y018554D01*
X044248Y018626D01*
X044226Y018699D01*
X044207Y018774D01*
X044193Y018849D01*
X044181Y018924D01*
X044174Y019001D01*
X044170Y019077D01*
X044171Y019154D01*
X044174Y019230D01*
X044182Y019307D01*
X044193Y019382D01*
X044208Y019458D01*
X044227Y019532D01*
X044249Y019605D01*
X044275Y019677D01*
X044326Y020515D02*
X044326Y020850D01*
X044917Y021401D02*
X044917Y022425D01*
X044915Y022484D01*
X044910Y022542D01*
X044901Y022600D01*
X044888Y022658D01*
X044872Y022714D01*
X044853Y022770D01*
X044830Y022824D01*
X044804Y022876D01*
X044775Y022927D01*
X044743Y022977D01*
X044708Y023024D01*
X044670Y023068D01*
X044629Y023111D01*
X044586Y023151D01*
X044541Y023188D01*
X044493Y023222D01*
X044443Y023253D01*
X044392Y023282D01*
X044338Y023307D01*
X042370Y022362D02*
X041771Y021858D01*
X042331Y021141D02*
X042389Y021154D01*
X042447Y021171D01*
X042503Y021191D01*
X042558Y021214D01*
X042612Y021242D01*
X042664Y021272D01*
X042713Y021306D01*
X042761Y021342D01*
X042806Y021382D01*
X042848Y021424D01*
X042888Y021469D01*
X042924Y021517D01*
X042958Y021566D01*
X042989Y021618D01*
X043016Y021671D01*
X043040Y021726D01*
X043060Y021783D01*
X043077Y021840D01*
X043090Y021899D01*
X043099Y021958D01*
X043104Y022018D01*
X043106Y022078D01*
X043104Y022138D01*
X043098Y022197D01*
X043089Y022256D01*
X043075Y022315D01*
X043058Y022372D01*
X043038Y022429D01*
X043014Y022484D01*
X042986Y022537D01*
X042955Y022588D01*
X042921Y022638D01*
X040992Y022401D02*
X040689Y022409D01*
X040098Y022409D02*
X040098Y021386D01*
X039508Y020834D02*
X039393Y019689D01*
X040653Y019689D02*
X040593Y018374D01*
X040653Y019689D02*
X041771Y020244D01*
X044276Y019676D02*
X044299Y019795D01*
X044317Y019914D01*
X044330Y020034D01*
X044337Y020154D01*
X044339Y020275D01*
X044336Y020395D01*
X044327Y020515D01*
X045508Y020850D02*
X045535Y019677D01*
X046641Y020181D01*
X047330Y021102D02*
X045508Y020850D01*
X046465Y022047D02*
X046428Y022096D01*
X046389Y022142D01*
X046347Y022185D01*
X046302Y022225D01*
X046254Y022263D01*
X046204Y022297D01*
X046152Y022328D01*
X046098Y022355D01*
X046043Y022380D01*
X045986Y022400D01*
X045928Y022417D01*
X045869Y022429D01*
X045809Y022439D01*
X045749Y022444D01*
X045688Y022445D01*
X045628Y022442D01*
X045568Y022436D01*
X045508Y022425D01*
X046641Y021795D02*
X047212Y022441D01*
X047764Y022755D02*
X047805Y022707D01*
X047842Y022656D01*
X047877Y022603D01*
X047908Y022548D01*
X047935Y022492D01*
X047959Y022433D01*
X047980Y022373D01*
X047996Y022312D01*
X048009Y022251D01*
X048018Y022188D01*
X048024Y022125D01*
X048025Y022062D01*
X048022Y021999D01*
X048016Y021936D01*
X048006Y021874D01*
X047992Y021812D01*
X047974Y021752D01*
X047952Y021692D01*
X047927Y021634D01*
X047898Y021578D01*
X047866Y021524D01*
X047831Y021472D01*
X047792Y021422D01*
X047751Y021374D01*
X047706Y021329D01*
X047659Y021287D01*
X047609Y021248D01*
X047558Y021212D01*
X047504Y021179D01*
X047448Y021150D01*
X047390Y021124D01*
X047331Y021102D01*
X040712Y016165D02*
X040460Y016507D01*
X040224Y016861D01*
X040005Y017225D01*
X039803Y017599D01*
X039619Y017983D01*
X039453Y018374D01*
X040653Y019689D02*
X040689Y020834D01*
X042330Y021141D01*
X041772Y021858D02*
X041749Y021909D01*
X041724Y021959D01*
X041695Y022007D01*
X041663Y022053D01*
X041628Y022097D01*
X041591Y022138D01*
X041551Y022177D01*
X041508Y022214D01*
X041463Y022247D01*
X041417Y022277D01*
X041368Y022305D01*
X041317Y022329D01*
X041266Y022350D01*
X041212Y022367D01*
X041158Y022381D01*
X041103Y022392D01*
X041048Y022398D01*
X040992Y022402D01*
X040098Y022409D02*
X040096Y022471D01*
X040090Y022532D01*
X040081Y022594D01*
X040067Y022654D01*
X040050Y022713D01*
X040029Y022772D01*
X040004Y022829D01*
X039976Y022884D01*
X039945Y022937D01*
X039910Y022988D01*
X039872Y023037D01*
X039831Y023083D01*
X039787Y023127D01*
X039741Y023168D01*
X039692Y023206D01*
X039640Y023241D01*
X039587Y023272D01*
X039532Y023300D01*
X039475Y023325D01*
X039417Y023346D01*
X037567Y022401D02*
X036909Y021870D01*
X037566Y021102D02*
X037627Y021114D01*
X037686Y021128D01*
X037745Y021147D01*
X037802Y021169D01*
X037857Y021195D01*
X037911Y021224D01*
X037963Y021257D01*
X038013Y021293D01*
X038061Y021332D01*
X038106Y021373D01*
X038148Y021418D01*
X038187Y021465D01*
X038224Y021514D01*
X038257Y021566D01*
X038287Y021619D01*
X038314Y021675D01*
X038337Y021731D01*
X038356Y021790D01*
X038372Y021849D01*
X038384Y021909D01*
X038392Y021970D01*
X038396Y022031D01*
X038397Y022093D01*
X038393Y022154D01*
X038386Y022215D01*
X038375Y022275D01*
X038361Y022335D01*
X038342Y022393D01*
X038320Y022450D01*
X038294Y022506D01*
X038265Y022560D01*
X038233Y022612D01*
X038197Y022662D01*
X038159Y022710D01*
X038117Y022755D01*
X035992Y022401D02*
X035846Y022413D01*
X035256Y022413D02*
X035256Y021389D01*
X035992Y022402D02*
X036060Y022395D01*
X036127Y022383D01*
X036194Y022368D01*
X036260Y022350D01*
X036325Y022328D01*
X036389Y022302D01*
X036450Y022272D01*
X036511Y022240D01*
X036569Y022204D01*
X036625Y022165D01*
X036679Y022122D01*
X036731Y022077D01*
X036780Y022029D01*
X036826Y021979D01*
X036869Y021926D01*
X036909Y021870D01*
X037567Y021102D02*
X035846Y020838D01*
X035826Y019716D01*
X034626Y018374D02*
X034655Y018303D01*
X034688Y018233D01*
X034724Y018165D01*
X034764Y018099D01*
X034807Y018036D01*
X034853Y017974D01*
X034902Y017915D01*
X034954Y017858D01*
X035008Y017804D01*
X035066Y017753D01*
X035126Y017705D01*
X035188Y017660D01*
X035253Y017618D01*
X035319Y017580D01*
X035388Y017545D01*
X035458Y017514D01*
X035529Y017486D01*
X035602Y017461D01*
X035676Y017441D01*
X034627Y018374D02*
X034593Y018493D01*
X034564Y018613D01*
X034542Y018734D01*
X034524Y018857D01*
X034513Y018980D01*
X034508Y019103D01*
X034508Y019227D01*
X034514Y019350D01*
X034526Y019473D01*
X034544Y019595D01*
X034567Y019716D01*
X034665Y020838D01*
X035256Y022413D02*
X035254Y022472D01*
X035248Y022530D01*
X035239Y022588D01*
X035226Y022645D01*
X035209Y022701D01*
X035189Y022756D01*
X035165Y022810D01*
X035137Y022861D01*
X035107Y022911D01*
X035073Y022959D01*
X035036Y023005D01*
X034997Y023048D01*
X034954Y023089D01*
X034909Y023126D01*
X034862Y023161D01*
X034813Y023193D01*
X034761Y023221D01*
X034708Y023246D01*
X034654Y023267D01*
X032645Y022362D02*
X032078Y021862D01*
X032646Y021102D02*
X032708Y021115D01*
X032770Y021132D01*
X032831Y021153D01*
X032890Y021177D01*
X032948Y021205D01*
X033004Y021236D01*
X033058Y021271D01*
X033109Y021309D01*
X033158Y021350D01*
X033205Y021394D01*
X033249Y021441D01*
X033290Y021490D01*
X033327Y021542D01*
X033362Y021596D01*
X033393Y021651D01*
X033421Y021709D01*
X033445Y021769D01*
X033466Y021829D01*
X033482Y021891D01*
X033495Y021954D01*
X033504Y022017D01*
X033510Y022081D01*
X033511Y022145D01*
X033508Y022209D01*
X033502Y022273D01*
X033491Y022336D01*
X033477Y022399D01*
X033459Y022460D01*
X033437Y022520D01*
X033412Y022579D01*
X033383Y022636D01*
X033350Y022691D01*
X033315Y022745D01*
X033276Y022796D01*
X031228Y022401D02*
X031000Y022386D01*
X030409Y022386D02*
X030409Y021362D01*
X029819Y020811D02*
X029716Y019704D01*
X024827Y018338D02*
X024905Y018095D01*
X024995Y017855D01*
X025095Y017619D01*
X025205Y017388D01*
X025325Y017163D01*
X025456Y016942D01*
X025596Y016728D01*
X025745Y016520D01*
X025903Y016319D01*
X026070Y016125D01*
X028827Y016125D02*
X028906Y016175D01*
X028984Y016227D01*
X029058Y016284D01*
X029130Y016344D01*
X029199Y016407D01*
X029265Y016474D01*
X029328Y016544D01*
X029387Y016616D01*
X029443Y016691D01*
X029495Y016769D01*
X029544Y016849D01*
X029588Y016932D01*
X029629Y017016D01*
X029665Y017103D01*
X029697Y017191D01*
X029726Y017280D01*
X029749Y017370D01*
X029769Y017462D01*
X029784Y017555D01*
X029795Y017648D01*
X029801Y017741D01*
X029803Y017835D01*
X029800Y017928D01*
X029793Y018022D01*
X029782Y018115D01*
X029766Y018207D01*
X029746Y018299D01*
X029721Y018389D01*
X030976Y019704D02*
X032078Y020248D01*
X032645Y021102D02*
X031000Y020811D01*
X030976Y019704D01*
X029716Y019704D02*
X029690Y019574D01*
X029669Y019443D01*
X029655Y019311D01*
X029647Y019179D01*
X029644Y019046D01*
X029647Y018914D01*
X029657Y018781D01*
X029672Y018650D01*
X029694Y018519D01*
X029721Y018389D01*
X032079Y021862D02*
X032057Y021915D01*
X032031Y021965D01*
X032002Y022014D01*
X031970Y022061D01*
X031934Y022105D01*
X031896Y022147D01*
X031855Y022186D01*
X031812Y022223D01*
X031766Y022256D01*
X031718Y022287D01*
X031668Y022314D01*
X031617Y022337D01*
X031564Y022358D01*
X031509Y022374D01*
X031454Y022387D01*
X031398Y022397D01*
X031342Y022402D01*
X031285Y022404D01*
X031228Y022402D01*
X030409Y022386D02*
X030407Y022445D01*
X030401Y022505D01*
X030392Y022563D01*
X030378Y022621D01*
X030361Y022678D01*
X030340Y022734D01*
X030316Y022788D01*
X030288Y022841D01*
X030257Y022891D01*
X030222Y022940D01*
X030185Y022986D01*
X030144Y023030D01*
X030101Y023070D01*
X030055Y023108D01*
X030007Y023143D01*
X029956Y023175D01*
X029904Y023203D01*
X029850Y023228D01*
X031598Y024929D02*
X031595Y025155D01*
X031622Y025669D01*
X023472Y022834D02*
X023218Y023094D01*
X022975Y023365D01*
X022744Y023646D01*
X022525Y023937D01*
X022320Y024237D01*
X022127Y024545D01*
X021948Y024862D01*
X021948Y024861D02*
X021910Y024937D01*
X021875Y025014D01*
X021844Y025093D01*
X021817Y025174D01*
X021793Y025255D01*
X021774Y025338D01*
X021758Y025421D01*
X021746Y025505D01*
X021738Y025589D01*
X021734Y025674D01*
X021735Y025759D01*
X021739Y025844D01*
X021747Y025928D01*
X021759Y026012D01*
X021775Y026095D01*
X021795Y026178D01*
X021818Y026259D01*
X026819Y026260D02*
X026799Y024862D01*
X024890Y023228D02*
X024946Y023211D01*
X025000Y023189D01*
X025054Y023165D01*
X025105Y023137D01*
X025155Y023105D01*
X025202Y023071D01*
X025247Y023033D01*
X025290Y022993D01*
X025330Y022950D01*
X025367Y022904D01*
X025401Y022857D01*
X025432Y022807D01*
X025459Y022755D01*
X025483Y022701D01*
X025504Y022646D01*
X025521Y022590D01*
X025534Y022533D01*
X025543Y022475D01*
X025549Y022417D01*
X025551Y022358D01*
X021425Y017283D02*
X021349Y017294D01*
X021273Y017310D01*
X021198Y017329D01*
X021124Y017351D01*
X021051Y017377D01*
X020979Y017406D01*
X020909Y017439D01*
X020840Y017475D01*
X020774Y017514D01*
X020709Y017556D01*
X020646Y017602D01*
X020585Y017650D01*
X020527Y017701D01*
X020471Y017755D01*
X020418Y017811D01*
X020368Y017870D01*
X020320Y017931D01*
X020276Y017994D01*
X020234Y018059D01*
X020195Y018126D01*
X020160Y018195D01*
X020128Y018266D01*
X020099Y018338D01*
X021240Y018338D02*
X021276Y018530D01*
X021304Y018723D01*
X021323Y018917D01*
X021333Y019112D01*
X021333Y019307D01*
X021325Y019502D01*
X021307Y019696D01*
X020736Y022346D02*
X020734Y022406D01*
X020729Y022466D01*
X020719Y022526D01*
X020707Y022585D01*
X020690Y022643D01*
X020670Y022700D01*
X020647Y022756D01*
X020620Y022810D01*
X020590Y022862D01*
X020557Y022913D01*
X020520Y022961D01*
X020481Y023007D01*
X020439Y023050D01*
X020395Y023091D01*
X020348Y023129D01*
X020299Y023164D01*
X020248Y023196D01*
X020195Y023225D01*
X020140Y023251D01*
X020084Y023273D01*
X020027Y023292D01*
X019968Y023307D01*
X036456Y024913D02*
X036386Y026260D01*
X041386Y026260D02*
X041366Y024964D01*
X046071Y026260D02*
X046058Y026168D01*
X046050Y026075D01*
X046045Y025982D01*
X046046Y025889D01*
X046050Y025797D01*
X046059Y025704D01*
X046072Y025612D01*
X046089Y025521D01*
X046110Y025431D01*
X046135Y025341D01*
X046165Y025253D01*
X046199Y025167D01*
X046236Y025082D01*
X046278Y024998D01*
X046323Y024917D01*
X038118Y022756D02*
X037745Y023155D01*
X037392Y023571D01*
X037059Y024004D01*
X036747Y024451D01*
X036457Y024914D01*
X028353Y022637D02*
X028000Y023051D01*
X027667Y023481D01*
X027355Y023927D01*
X027066Y024388D01*
X026798Y024862D01*
X039394Y019689D02*
X039371Y019580D01*
X039354Y019471D01*
X039341Y019360D01*
X039333Y019249D01*
X039331Y019138D01*
X039334Y019027D01*
X039341Y018917D01*
X039354Y018806D01*
X039371Y018697D01*
X039394Y018588D01*
X039421Y018480D01*
X039453Y018374D01*
X043468Y016165D02*
X043541Y016190D01*
X043612Y016219D01*
X043682Y016251D01*
X043750Y016287D01*
X043816Y016326D01*
X043880Y016368D01*
X043942Y016413D01*
X044001Y016461D01*
X044059Y016513D01*
X044113Y016567D01*
X044165Y016623D01*
X044214Y016682D01*
X044260Y016744D01*
X044302Y016807D01*
X044342Y016873D01*
X044378Y016941D01*
X044411Y017010D01*
X044441Y017081D01*
X044466Y017153D01*
X044489Y017227D01*
X044507Y017301D01*
X044522Y017376D01*
X044533Y017452D01*
X044540Y017529D01*
X044544Y017605D01*
X044543Y017682D01*
X044539Y017759D01*
X044531Y017835D01*
X044520Y017911D01*
X044504Y017986D01*
X044485Y018060D01*
X044462Y018134D01*
X044436Y018206D01*
X044406Y018276D01*
X044372Y018345D01*
X044335Y018413D01*
X037957Y016166D02*
X037781Y016330D01*
X037598Y016485D01*
X037407Y016632D01*
X037210Y016769D01*
X037006Y016896D01*
X036796Y017013D01*
X036581Y017120D01*
X036361Y017217D01*
X036137Y017303D01*
X035909Y017378D01*
X035677Y017441D01*
X033275Y022795D02*
X032681Y023558D01*
X032121Y024345D01*
X031595Y025156D01*
X046323Y024917D02*
X046776Y024179D01*
X047256Y023458D01*
X047764Y022756D01*
X042921Y022638D02*
X042118Y023784D01*
X041366Y024964D01*
D31*
X050008Y024724D03*
X016892Y024836D03*
D32*
X015996Y023858D01*
X017252Y022244D02*
X017346Y022278D01*
X017439Y022316D01*
X017530Y022358D01*
X017619Y022405D01*
X017705Y022456D01*
X017789Y022511D01*
X017871Y022570D01*
X017949Y022633D01*
X018025Y022699D01*
X018097Y022769D01*
X018166Y022842D01*
X018231Y022918D01*
X018293Y022997D01*
X018350Y023079D01*
X018404Y023164D01*
X018454Y023251D01*
X018500Y023341D01*
X018541Y023432D01*
X018578Y023525D01*
X018610Y023620D01*
X018638Y023717D01*
X018662Y023814D01*
X018680Y023913D01*
X018695Y024013D01*
X018704Y024112D01*
X018708Y024213D01*
X018709Y024212D02*
X018713Y024313D01*
X018723Y024414D01*
X018737Y024514D01*
X018756Y024614D01*
X018780Y024712D01*
X018808Y024809D01*
X018841Y024905D01*
X018879Y024999D01*
X018921Y025091D01*
X018967Y025181D01*
X019017Y025269D01*
X019072Y025354D01*
X019131Y025437D01*
X019193Y025516D01*
X019259Y025593D01*
X019329Y025666D01*
X019403Y025736D01*
X019479Y025802D01*
X019559Y025865D01*
X019641Y025924D01*
X019726Y025978D01*
X019814Y026029D01*
X019904Y026075D01*
X019996Y026117D01*
X020090Y026155D01*
X020185Y026188D01*
X020283Y026217D01*
X020381Y026241D01*
X020480Y026260D01*
X021819Y026260D01*
X023708Y026260D01*
X026819Y026260D01*
X027567Y025945D01*
X029023Y025669D02*
X031622Y025669D01*
X033393Y025669D01*
X035874Y026260D02*
X036582Y026260D01*
X041386Y026260D01*
X046071Y026260D01*
X048000Y026260D01*
X048000Y026259D02*
X048059Y026265D01*
X048118Y026266D01*
X048178Y026264D01*
X048237Y026257D01*
X048295Y026247D01*
X048353Y026233D01*
X048410Y026216D01*
X048465Y026194D01*
X048519Y026170D01*
X048571Y026141D01*
X048621Y026110D01*
X048670Y026075D01*
X048715Y026037D01*
X048758Y025996D01*
X048799Y025953D01*
X048836Y025907D01*
X048871Y025858D01*
X048902Y025808D01*
X048930Y025755D01*
X048954Y025701D01*
X048975Y025646D01*
X048992Y025589D01*
X049006Y025531D01*
X049015Y025472D01*
X049021Y025413D01*
X049023Y025354D01*
X049023Y022874D01*
X049036Y022824D01*
X049051Y022774D01*
X049070Y022726D01*
X049093Y022680D01*
X049119Y022635D01*
X049147Y022592D01*
X049179Y022551D01*
X049213Y022512D01*
X049250Y022476D01*
X049290Y022442D01*
X049332Y022412D01*
X049375Y022384D01*
X049421Y022360D01*
X049468Y022338D01*
X049517Y022320D01*
X049566Y022306D01*
X049617Y022295D01*
X049668Y022287D01*
X049720Y022284D01*
X049772Y022283D01*
X049771Y022283D02*
X051027Y022283D01*
X051027Y023858D02*
X050008Y024724D01*
X049771Y027874D02*
X049756Y029386D01*
X051134Y029386D01*
X049771Y027874D02*
X049770Y027794D01*
X049765Y027715D01*
X049756Y027636D01*
X049743Y027557D01*
X049726Y027479D01*
X049705Y027403D01*
X049681Y027327D01*
X049653Y027252D01*
X049621Y027179D01*
X049586Y027108D01*
X049547Y027039D01*
X049505Y026971D01*
X049459Y026906D01*
X049411Y026843D01*
X049359Y026783D01*
X049304Y026725D01*
X049247Y026670D01*
X049187Y026618D01*
X049124Y026569D01*
X049059Y026523D01*
X048992Y026480D01*
X048923Y026441D01*
X048851Y026405D01*
X048779Y026373D01*
X048704Y026344D01*
X048629Y026319D01*
X048552Y026298D01*
X048474Y026281D01*
X048396Y026268D01*
X048317Y026258D01*
X048238Y026253D01*
X048158Y026251D01*
X048079Y026253D01*
X047999Y026260D01*
X036582Y026260D02*
X036386Y026260D01*
X035873Y026260D02*
X035641Y026149D01*
X035404Y026049D01*
X035162Y025961D01*
X034917Y025884D01*
X034668Y025819D01*
X034416Y025765D01*
X034162Y025723D01*
X033907Y025693D01*
X033650Y025675D01*
X033393Y025669D01*
X029024Y025669D02*
X028858Y025669D01*
X028692Y025677D01*
X028527Y025692D01*
X028362Y025715D01*
X028199Y025746D01*
X028038Y025784D01*
X027879Y025830D01*
X027722Y025884D01*
X027567Y025945D01*
X017252Y022244D02*
X016267Y022283D01*
X015996Y022283D01*
X015952Y022323D01*
D33*
X015283Y021456D02*
X015996Y020708D01*
X015047Y024897D02*
X015008Y024954D01*
X015006Y025005D01*
X015008Y025056D01*
X015014Y025107D01*
X015023Y025158D01*
X015037Y025207D01*
X015054Y025255D01*
X015074Y025302D01*
X015098Y025348D01*
X015126Y025391D01*
X015156Y025432D01*
X015190Y025471D01*
X015226Y025507D01*
X015265Y025540D01*
X015306Y025571D01*
X015350Y025598D01*
X015395Y025622D01*
X015442Y025642D01*
X015490Y025659D01*
X015540Y025672D01*
X015590Y025682D01*
X015641Y025687D01*
X016307Y025823D02*
X016363Y025865D01*
X016416Y025909D01*
X016467Y025956D01*
X016515Y026006D01*
X016560Y026059D01*
X016602Y026114D01*
X016640Y026172D01*
X016676Y026232D01*
X016708Y026293D01*
X016736Y026357D01*
X016760Y026421D01*
X016781Y026488D01*
X016798Y026555D01*
X016812Y026623D01*
X016821Y026692D01*
X016827Y026761D01*
X016828Y026830D01*
X016825Y026899D01*
X016819Y026968D01*
X016819Y027677D01*
X016819Y027681D01*
X017602Y027681D01*
X016819Y027677D02*
X016819Y029567D01*
X017819Y029574D01*
X019236Y029574D01*
X017449Y031614D02*
X017402Y031613D01*
X017354Y031608D01*
X017308Y031600D01*
X017262Y031588D01*
X017217Y031573D01*
X017174Y031555D01*
X017132Y031533D01*
X017091Y031508D01*
X017053Y031480D01*
X017017Y031449D01*
X016984Y031416D01*
X016953Y031380D01*
X016925Y031342D01*
X016900Y031301D01*
X016878Y031259D01*
X016860Y031216D01*
X016845Y031171D01*
X016833Y031125D01*
X016825Y031079D01*
X016820Y031031D01*
X016819Y030984D01*
X016819Y029567D01*
X017449Y031614D02*
X029338Y031614D01*
X029402Y031612D01*
X029465Y031606D01*
X029528Y031597D01*
X029590Y031584D01*
X029652Y031567D01*
X029712Y031547D01*
X029771Y031523D01*
X029829Y031496D01*
X029885Y031465D01*
X029939Y031432D01*
X029991Y031395D01*
X030041Y031355D01*
X030088Y031313D01*
X030133Y031267D01*
X030175Y031220D01*
X030214Y031169D01*
X030250Y031117D01*
X030283Y031063D01*
X030992Y030984D02*
X030996Y030405D01*
X030520Y029842D02*
X030518Y029817D01*
X030520Y029791D01*
X030526Y029766D01*
X030536Y029743D01*
X030549Y029721D01*
X030564Y029701D01*
X030583Y029683D01*
X030604Y029669D01*
X030627Y029657D01*
X030652Y029650D01*
X030677Y029646D01*
X030677Y029645D02*
X030996Y029618D01*
X030996Y029617D02*
X030985Y029571D01*
X030978Y029524D01*
X030975Y029477D01*
X030976Y029429D01*
X030981Y029382D01*
X030990Y029335D01*
X031003Y029289D01*
X031019Y029245D01*
X031040Y029202D01*
X031064Y029160D01*
X031091Y029121D01*
X031121Y029085D01*
X031154Y029051D01*
X031190Y029020D01*
X031229Y028992D01*
X031269Y028967D01*
X031312Y028946D01*
X031356Y028929D01*
X031402Y028915D01*
X031448Y028905D01*
X031495Y028899D01*
X031543Y028897D01*
X032015Y028897D02*
X032062Y028900D01*
X032109Y028899D01*
X032155Y028894D01*
X032201Y028886D01*
X032246Y028874D01*
X032290Y028858D01*
X032291Y028859D02*
X032389Y028822D01*
X032488Y028790D01*
X032588Y028762D01*
X032690Y028740D01*
X032792Y028722D01*
X032896Y028709D01*
X033000Y028701D01*
X035165Y028571D02*
X035229Y028572D01*
X035292Y028575D01*
X035356Y028583D01*
X035418Y028594D01*
X035481Y028609D01*
X035542Y028628D01*
X035602Y028650D01*
X035660Y028675D01*
X035717Y028704D01*
X035772Y028736D01*
X035825Y028771D01*
X035876Y028810D01*
X035925Y028851D01*
X035971Y028895D01*
X036015Y028941D01*
X035992Y029212D01*
X035991Y029212D02*
X035989Y029257D01*
X035991Y029303D01*
X035996Y029348D01*
X036006Y029393D01*
X036019Y029436D01*
X036035Y029479D01*
X036056Y029520D01*
X036079Y029559D01*
X036106Y029596D01*
X036135Y029630D01*
X036168Y029662D01*
X036203Y029691D01*
X036240Y029717D01*
X036279Y029740D01*
X036321Y029760D01*
X036363Y029776D01*
X036407Y029788D01*
X036452Y029797D01*
X036497Y029802D01*
X036543Y029803D01*
X040008Y029803D01*
X042803Y029803D01*
X042841Y029796D01*
X042878Y029785D01*
X042914Y029771D01*
X042948Y029754D01*
X042981Y029733D01*
X043011Y029710D01*
X043040Y029684D01*
X043066Y029655D01*
X043089Y029625D01*
X043109Y029592D01*
X043126Y029557D01*
X043140Y029521D01*
X043150Y029484D01*
X043157Y029446D01*
X043161Y029408D01*
X043160Y029369D01*
X043157Y029331D01*
X043157Y029330D02*
X043157Y028071D01*
X043159Y028032D01*
X043165Y027994D01*
X043174Y027957D01*
X043187Y027920D01*
X043204Y027885D01*
X043223Y027852D01*
X043246Y027821D01*
X043272Y027792D01*
X043301Y027766D01*
X043332Y027743D01*
X043365Y027724D01*
X043400Y027707D01*
X043437Y027694D01*
X043474Y027685D01*
X043512Y027679D01*
X043551Y027677D01*
X043945Y027677D01*
X047370Y027677D01*
X047410Y027675D01*
X047450Y027670D01*
X047489Y027661D01*
X047527Y027648D01*
X047563Y027632D01*
X047598Y027612D01*
X047631Y027590D01*
X047662Y027564D01*
X047691Y027536D01*
X047716Y027505D01*
X047739Y027472D01*
X047759Y027437D01*
X047775Y027401D01*
X047788Y027363D01*
X047797Y027324D01*
X047803Y027284D01*
X047805Y027244D01*
X047803Y027204D01*
X047802Y027205D02*
X047799Y027152D01*
X047799Y027100D01*
X047802Y027047D01*
X047567Y025118D02*
X047803Y024094D01*
X047812Y024020D01*
X047824Y023947D01*
X047839Y023874D01*
X047858Y023801D01*
X047879Y023730D01*
X047904Y023660D01*
X047932Y023590D01*
X047964Y023523D01*
X047998Y023456D01*
X048035Y023392D01*
X048075Y023329D01*
X048118Y023268D01*
X049102Y020984D02*
X049127Y020945D01*
X049155Y020908D01*
X049186Y020874D01*
X049220Y020842D01*
X049257Y020813D01*
X049296Y020787D01*
X049336Y020765D01*
X049379Y020746D01*
X049423Y020730D01*
X049468Y020718D01*
X049513Y020710D01*
X049560Y020706D01*
X049606Y020705D01*
X049653Y020709D01*
X049102Y020984D02*
X049009Y021150D01*
X048923Y021320D01*
X048844Y021494D01*
X048773Y021670D01*
X048709Y021850D01*
X048708Y021850D02*
X048615Y022144D01*
X048509Y022433D01*
X048391Y022717D01*
X048260Y022995D01*
X048117Y023268D01*
X049653Y020708D02*
X049927Y020733D01*
X050202Y020745D01*
X050478Y020745D01*
X050753Y020733D01*
X051027Y020708D01*
X030519Y029842D02*
X030529Y029932D01*
X030535Y030022D01*
X030537Y030112D01*
X030534Y030203D01*
X030528Y030293D01*
X030517Y030383D01*
X030502Y030472D01*
X030482Y030560D01*
X030459Y030647D01*
X030432Y030733D01*
X030400Y030818D01*
X030365Y030901D01*
X030326Y030983D01*
X030283Y031062D01*
X025244Y030945D02*
X024606Y030949D01*
X023275Y030472D02*
X023000Y030433D01*
X022149Y030441D01*
X023000Y030433D02*
X023052Y030431D01*
X023104Y030424D01*
X023155Y030414D01*
X023205Y030401D01*
X023255Y030383D01*
X023303Y030363D01*
X023349Y030338D01*
X023393Y030311D01*
X023436Y030280D01*
X023475Y030246D01*
X023513Y030209D01*
X023547Y030170D01*
X023579Y030129D01*
X023607Y030085D01*
X023633Y030039D01*
X023654Y029991D01*
X023673Y029942D01*
X023687Y029892D01*
X023698Y029841D01*
X023705Y029789D01*
X023709Y029737D01*
X023708Y029685D01*
X023708Y026260D01*
X023118Y028700D02*
X022149Y028708D01*
X023276Y030473D02*
X023326Y030482D01*
X023375Y030495D01*
X023423Y030511D01*
X023470Y030532D01*
X023515Y030556D01*
X023558Y030583D01*
X023598Y030614D01*
X023637Y030647D01*
X023672Y030684D01*
X023705Y030723D01*
X023734Y030764D01*
X023761Y030808D01*
X023784Y030853D01*
X023803Y030900D01*
X023818Y030949D01*
X019023Y027681D02*
X018389Y027681D01*
X019023Y027681D02*
X019023Y027677D01*
X016307Y025823D02*
X016245Y025794D01*
X016181Y025767D01*
X016116Y025745D01*
X016050Y025726D01*
X015983Y025710D01*
X015915Y025698D01*
X015847Y025690D01*
X015778Y025685D01*
X015709Y025684D01*
X015641Y025687D01*
X033000Y028701D02*
X035165Y028571D01*
D34*
X035165Y029201D02*
X035204Y029210D01*
X035244Y029215D01*
X035284Y029217D01*
X035325Y029215D01*
X035365Y029210D01*
X035404Y029201D01*
X035443Y029189D01*
X035480Y029173D01*
X035834Y029055D02*
X036015Y028941D01*
X036803Y028941D02*
X037370Y028937D01*
X037724Y028228D02*
X035165Y028256D01*
X034260Y027665D02*
X034256Y027616D01*
X034256Y027568D01*
X034260Y027519D01*
X034260Y027401D02*
X034260Y027665D01*
X034574Y027665D02*
X040031Y027691D01*
X039495Y027087D02*
X039454Y027084D01*
X039412Y027085D01*
X039371Y027090D01*
X039330Y027098D01*
X039290Y027110D01*
X039252Y027125D01*
X039215Y027144D01*
X039180Y027166D01*
X039146Y027192D01*
X039116Y027220D01*
X039088Y027251D01*
X039063Y027284D01*
X039102Y026850D02*
X035598Y026850D01*
X036031Y024173D02*
X035874Y024150D01*
X035717Y024134D01*
X035558Y024125D01*
X035399Y024125D01*
X035241Y024132D01*
X035083Y024146D01*
X034926Y024168D01*
X034770Y024197D01*
X034615Y024234D01*
X034463Y024279D01*
X034313Y024330D01*
X034166Y024389D01*
X034021Y024454D01*
X033880Y024527D01*
X033742Y024606D01*
X033609Y024692D01*
X033479Y024784D01*
X033355Y024882D01*
X032449Y024803D02*
X035204Y023504D01*
X034142Y022992D02*
X034105Y023023D01*
X034071Y023057D01*
X034040Y023093D01*
X034011Y023132D01*
X033984Y023171D01*
X033960Y023213D01*
X033939Y023256D01*
X033921Y023301D01*
X033905Y023346D01*
X034141Y022992D02*
X034665Y022413D01*
X035834Y029055D02*
X035480Y029173D01*
X035165Y029515D02*
X034614Y029488D01*
X034575Y029843D02*
X034532Y029840D01*
X034489Y029833D01*
X034447Y029822D01*
X034407Y029808D01*
X034368Y029791D01*
X034330Y029770D01*
X034294Y029745D01*
X034261Y029718D01*
X034230Y029688D01*
X034202Y029655D01*
X034177Y029620D01*
X034155Y029583D01*
X034137Y029544D01*
X034122Y029504D01*
X034110Y029462D01*
X034103Y029420D01*
X034099Y029377D01*
X034098Y029334D01*
X034102Y029291D01*
X034732Y029842D02*
X035165Y029830D01*
X035165Y030145D02*
X035559Y030157D01*
X035480Y030472D02*
X035165Y030460D01*
X034338Y030511D02*
X034260Y031051D01*
X034574Y031051D02*
X034574Y031378D01*
X034575Y031378D02*
X034577Y031410D01*
X034582Y031441D01*
X034591Y031471D01*
X034603Y031500D01*
X034619Y031528D01*
X034637Y031553D01*
X034658Y031576D01*
X034682Y031597D01*
X034708Y031615D01*
X034736Y031630D01*
X034765Y031642D01*
X034796Y031650D01*
X034827Y031655D01*
X034858Y031656D01*
X034890Y031654D01*
X034889Y031653D02*
X036622Y031653D01*
X037764Y030432D02*
X037831Y030457D01*
X037897Y030486D01*
X037961Y030518D01*
X038023Y030553D01*
X038084Y030592D01*
X038142Y030634D01*
X038197Y030680D01*
X038251Y030728D01*
X038301Y030779D01*
X038349Y030832D01*
X038393Y030888D01*
X038435Y030947D01*
X038473Y031007D01*
X037764Y030433D02*
X037707Y030416D01*
X037649Y030402D01*
X037590Y030391D01*
X037530Y030384D01*
X037470Y030381D01*
X037411Y030382D01*
X037351Y030386D01*
X037292Y030394D01*
X037473Y030907D02*
X037463Y030963D01*
X037451Y031017D01*
X037434Y031071D01*
X037415Y031123D01*
X037391Y031175D01*
X037365Y031224D01*
X037335Y031272D01*
X037303Y031317D01*
X037267Y031361D01*
X037229Y031402D01*
X037188Y031440D01*
X037144Y031476D01*
X037099Y031508D01*
X037051Y031538D01*
X037001Y031565D01*
X036950Y031588D01*
X036898Y031607D01*
X036844Y031624D01*
X036789Y031637D01*
X036734Y031646D01*
X036678Y031651D01*
X036622Y031653D01*
X037369Y030118D02*
X037498Y030112D01*
X037627Y030112D01*
X037755Y030118D01*
X037884Y030130D01*
X038011Y030148D01*
X038137Y030173D01*
X038262Y030203D01*
X038386Y030240D01*
X038507Y030282D01*
X038627Y030330D01*
X038744Y030384D01*
X038858Y030443D01*
X038969Y030508D01*
X039077Y030578D01*
X039182Y030653D01*
X039282Y030734D01*
X039379Y030819D01*
X039472Y030908D01*
X040008Y029803D02*
X040039Y028695D01*
X040835Y026890D02*
X040904Y026891D01*
X040974Y026896D01*
X041043Y026904D01*
X041111Y026916D01*
X041179Y026933D01*
X041246Y026952D01*
X041312Y026976D01*
X041376Y027003D01*
X041438Y027033D01*
X041499Y027067D01*
X041558Y027104D01*
X041615Y027144D01*
X041669Y027188D01*
X041721Y027234D01*
X041771Y027283D01*
X041817Y027335D01*
X041861Y027389D01*
X041902Y027446D01*
X041939Y027505D01*
X041973Y027565D01*
X042004Y027628D01*
X042031Y027692D01*
X042031Y027691D02*
X043118Y027126D01*
X043905Y027126D02*
X043945Y027677D01*
X042803Y029803D02*
X041472Y030908D01*
X039416Y023818D02*
X039651Y023731D01*
X039890Y023655D01*
X040132Y023589D01*
X040376Y023535D01*
X040623Y023490D01*
X040871Y023457D01*
X041121Y023435D01*
X041371Y023424D01*
X041621Y023424D01*
X043197Y023346D02*
X044326Y022425D01*
X048196Y021063D02*
X048246Y021087D01*
X048294Y021114D01*
X048340Y021144D01*
X048384Y021178D01*
X048426Y021213D01*
X048466Y021252D01*
X048503Y021293D01*
X048537Y021336D01*
X048568Y021381D01*
X048597Y021428D01*
X048622Y021477D01*
X048645Y021528D01*
X048664Y021579D01*
X048680Y021632D01*
X048692Y021686D01*
X048701Y021740D01*
X048706Y021795D01*
X048708Y021851D01*
X048196Y021063D02*
X048158Y021044D01*
X048121Y021022D01*
X048086Y020997D01*
X048054Y020969D01*
X048023Y020939D01*
X047995Y020907D01*
X047970Y020872D01*
X047948Y020836D01*
X047929Y020797D01*
X047913Y020758D01*
X047900Y020717D01*
X047890Y020675D01*
X047884Y020633D01*
X047881Y020590D01*
X047882Y020590D02*
X047878Y020433D01*
X047878Y020078D02*
X047850Y018952D01*
X048846Y019256D01*
X049200Y019256D02*
X051027Y019134D01*
X051267Y018346D02*
X049693Y018346D01*
X049692Y018345D02*
X049633Y018346D01*
X049573Y018342D01*
X049513Y018335D01*
X049455Y018324D01*
X049397Y018310D01*
X049340Y018292D01*
X049284Y018271D01*
X049229Y018246D01*
X049177Y018217D01*
X049126Y018186D01*
X049077Y018151D01*
X049030Y018114D01*
X048986Y018074D01*
X048945Y018030D01*
X047882Y017598D02*
X046693Y017578D01*
X046693Y018326D02*
X046740Y018976D01*
X047881Y017598D02*
X047960Y017601D01*
X048038Y017609D01*
X048115Y017619D01*
X048192Y017634D01*
X048268Y017653D01*
X048343Y017675D01*
X048417Y017701D01*
X048489Y017730D01*
X048560Y017763D01*
X048630Y017800D01*
X048697Y017840D01*
X048762Y017883D01*
X048825Y017929D01*
X048886Y017979D01*
X048944Y018031D01*
X051027Y017559D02*
X052291Y017834D01*
X052212Y018386D01*
X052488Y016811D02*
X052606Y016220D01*
X052604Y016193D01*
X052599Y016167D01*
X052590Y016141D01*
X052578Y016117D01*
X052562Y016095D01*
X052544Y016075D01*
X052523Y016058D01*
X052501Y016044D01*
X052476Y016033D01*
X052450Y016025D01*
X052424Y016021D01*
X052397Y016020D01*
X052370Y016023D01*
X052222Y016047D01*
X052072Y016064D01*
X051922Y016073D01*
X051772Y016076D01*
X051622Y016072D01*
X051472Y016060D01*
X051323Y016042D01*
X051174Y016016D01*
X051028Y015984D01*
X044221Y015511D02*
X044194Y015479D01*
X044165Y015450D01*
X044134Y015423D01*
X044100Y015398D01*
X044065Y015377D01*
X044028Y015358D01*
X043989Y015343D01*
X043950Y015331D01*
X043909Y015322D01*
X043868Y015316D01*
X043827Y015314D01*
X043826Y015315D02*
X021031Y015354D01*
X021032Y015354D02*
X020898Y015346D01*
X020765Y015344D01*
X020631Y015349D01*
X020498Y015360D01*
X020366Y015377D01*
X020234Y015401D01*
X020104Y015431D01*
X019975Y015467D01*
X019849Y015510D01*
X019724Y015558D01*
X019602Y015613D01*
X019483Y015673D01*
X019367Y015739D01*
X019254Y015810D01*
X019144Y015887D01*
X019039Y015969D01*
X018937Y016056D01*
X018840Y016148D01*
X018747Y016244D01*
X018660Y016344D01*
X018577Y016449D01*
X018499Y016558D01*
X018426Y016670D01*
X018359Y016786D01*
X018298Y016904D01*
X018242Y017026D01*
X018193Y017150D01*
X018149Y017276D01*
X018112Y017404D01*
X018080Y017534D01*
X018055Y017666D01*
X018037Y017798D01*
X018024Y017931D01*
X018019Y018064D01*
X018019Y018198D01*
X018026Y018332D01*
X018040Y018464D01*
X018039Y018464D02*
X018043Y018512D01*
X018044Y018560D01*
X018040Y018608D01*
X018032Y018655D01*
X018021Y018702D01*
X018006Y018747D01*
X017987Y018792D01*
X017965Y018834D01*
X017939Y018875D01*
X017911Y018913D01*
X017879Y018949D01*
X017844Y018983D01*
X017807Y019013D01*
X017768Y019040D01*
X017726Y019065D01*
X017683Y019085D01*
X017638Y019102D01*
X017592Y019116D01*
X017545Y019125D01*
X017497Y019131D01*
X017449Y019133D01*
X017449Y019134D02*
X015996Y019134D01*
X014968Y018070D02*
X014967Y018031D01*
X014969Y017993D01*
X014976Y017954D01*
X014985Y017917D01*
X014998Y017880D01*
X015015Y017845D01*
X015035Y017812D01*
X015058Y017780D01*
X015083Y017751D01*
X015112Y017725D01*
X015142Y017701D01*
X015175Y017680D01*
X015210Y017662D01*
X015246Y017648D01*
X015283Y017637D01*
X015996Y017559D01*
X014968Y018071D02*
X014968Y018386D01*
X014535Y016732D02*
X014417Y016181D01*
X014417Y016180D02*
X014413Y016157D01*
X014413Y016133D01*
X014417Y016109D01*
X014424Y016086D01*
X014435Y016064D01*
X014448Y016044D01*
X014465Y016027D01*
X014483Y016012D01*
X014504Y016000D01*
X014527Y015991D01*
X014550Y015986D01*
X014574Y015984D01*
X015996Y015984D01*
X020145Y022346D02*
X019299Y023071D01*
X018157Y026260D02*
X018233Y026347D01*
X018313Y026431D01*
X018397Y026511D01*
X018484Y026586D01*
X018575Y026658D01*
X018670Y026725D01*
X018767Y026788D01*
X018867Y026845D01*
X018970Y026898D01*
X019076Y026946D01*
X019183Y026989D01*
X019293Y027027D01*
X019404Y027060D01*
X019516Y027087D01*
X019630Y027109D01*
X019744Y027126D01*
X019860Y027137D01*
X019975Y027142D01*
X020091Y027142D01*
X020207Y027137D01*
X020322Y027126D01*
X020323Y027126D02*
X023197Y027126D01*
X024181Y027127D02*
X024233Y027131D01*
X024284Y027139D01*
X024335Y027150D01*
X024385Y027166D01*
X024434Y027185D01*
X024481Y027208D01*
X024526Y027235D01*
X024569Y027265D01*
X024609Y027298D01*
X024647Y027333D01*
X024683Y027372D01*
X024715Y027413D01*
X024744Y027457D01*
X024769Y027502D01*
X024792Y027550D01*
X024810Y027599D01*
X025126Y026968D02*
X026937Y026968D01*
X026997Y026966D01*
X027057Y026961D01*
X027117Y026953D01*
X027176Y026941D01*
X027234Y026926D01*
X027292Y026907D01*
X027348Y026886D01*
X027403Y026861D01*
X027456Y026833D01*
X027508Y026802D01*
X027558Y026768D01*
X027606Y026732D01*
X028472Y026732D02*
X029811Y026614D01*
X033078Y026614D01*
X033157Y027086D02*
X033590Y027283D01*
X033630Y027665D01*
X033945Y027665D02*
X033945Y027519D01*
X034260Y027401D02*
X034264Y027373D01*
X034272Y027346D01*
X034284Y027320D01*
X034299Y027296D01*
X034317Y027274D01*
X034337Y027254D01*
X034360Y027238D01*
X034385Y027224D01*
X034411Y027214D01*
X034439Y027207D01*
X034467Y027204D01*
X034496Y027205D01*
X034496Y027204D02*
X037409Y027204D01*
X037921Y028662D02*
X037947Y028715D01*
X037977Y028766D01*
X038010Y028816D01*
X038045Y028863D01*
X038084Y028908D01*
X038125Y028950D01*
X038169Y028990D01*
X038216Y029027D01*
X038264Y029061D01*
X038315Y029092D01*
X038367Y029119D01*
X038421Y029143D01*
X038477Y029164D01*
X038533Y029181D01*
X038591Y029195D01*
X038650Y029205D01*
X038708Y029211D01*
X038768Y029214D01*
X038827Y029213D01*
X041031Y027592D02*
X041043Y027560D01*
X041051Y027528D01*
X041055Y027495D01*
X041056Y027462D01*
X041053Y027429D01*
X041047Y027396D01*
X041037Y027364D01*
X041024Y027334D01*
X041007Y027305D01*
X040987Y027278D01*
X040965Y027253D01*
X040940Y027231D01*
X040913Y027212D01*
X040884Y027196D01*
X040853Y027183D01*
X040821Y027173D01*
X040789Y027167D01*
X040755Y027165D01*
X040756Y025590D02*
X038826Y025590D01*
X038511Y023307D02*
X039508Y022409D01*
X039417Y023819D02*
X039287Y023880D01*
X039154Y023935D01*
X039018Y023984D01*
X038880Y024026D01*
X038741Y024061D01*
X038599Y024090D01*
X038457Y024112D01*
X038314Y024128D01*
X038170Y024137D01*
X038026Y024139D01*
X037882Y024134D01*
X037291Y030394D02*
X037030Y030431D01*
X036767Y030457D01*
X036504Y030473D01*
X033905Y030157D02*
X033315Y030078D01*
X033269Y030076D01*
X033223Y030078D01*
X033177Y030083D01*
X033132Y030092D01*
X033088Y030105D01*
X033045Y030121D01*
X033003Y030140D01*
X032963Y030163D01*
X032925Y030188D01*
X032889Y030217D01*
X032855Y030248D01*
X032824Y030282D01*
X032795Y030318D01*
X032770Y030356D01*
X032747Y030396D01*
X032728Y030438D01*
X032712Y030481D01*
X032699Y030525D01*
X032690Y030570D01*
X032685Y030616D01*
X032683Y030662D01*
X032685Y030708D01*
X032685Y031051D01*
X032134Y030748D02*
X032136Y030705D01*
X032141Y030663D01*
X032150Y030621D01*
X032162Y030580D01*
X032178Y030540D01*
X032197Y030501D01*
X032219Y030465D01*
X032244Y030430D01*
X032272Y030397D01*
X032302Y030367D01*
X032335Y030340D01*
X032370Y030315D01*
X032330Y029842D02*
X031779Y029830D01*
X031779Y028571D02*
X031717Y028561D01*
X031654Y028556D01*
X031592Y028554D01*
X031529Y028556D01*
X031466Y028562D01*
X031404Y028572D01*
X031343Y028585D01*
X031283Y028602D01*
X031223Y028623D01*
X031166Y028648D01*
X031109Y028676D01*
X031055Y028707D01*
X031003Y028742D01*
X030952Y028779D01*
X029366Y030051D01*
X027972Y029693D01*
X027224Y029693D02*
X026543Y029134D01*
X027236Y028535D01*
X027984Y028535D02*
X029366Y028130D01*
X029358Y028287D01*
X029417Y028346D01*
X031767Y028267D01*
X031779Y028256D01*
X031779Y028886D02*
X031582Y028886D01*
X031582Y028897D01*
X031543Y028897D01*
X031779Y029200D02*
X032330Y029252D01*
X031779Y029515D02*
X031582Y029527D01*
X031779Y030460D02*
X031740Y031220D01*
X031779Y028886D02*
X031858Y028887D01*
X031937Y028891D01*
X032015Y028898D01*
X032370Y027665D02*
X031464Y027086D01*
X032370Y027008D02*
X032685Y027441D01*
X032685Y027665D01*
X033079Y026614D02*
X033137Y026617D01*
X033194Y026624D01*
X033251Y026635D01*
X033307Y026649D01*
X033362Y026668D01*
X033416Y026689D01*
X033468Y026714D01*
X033519Y026743D01*
X033567Y026774D01*
X033614Y026809D01*
X033658Y026847D01*
X033699Y026888D01*
X033738Y026931D01*
X033774Y026976D01*
X033806Y027024D01*
X033836Y027074D01*
X033862Y027126D01*
X033885Y027179D01*
X033904Y027234D01*
X033920Y027290D01*
X033932Y027346D01*
X033940Y027404D01*
X033944Y027462D01*
X033945Y027520D01*
X034260Y027519D02*
X034264Y027455D01*
X034265Y027391D01*
X034262Y027328D01*
X034255Y027264D01*
X034244Y027201D01*
X034229Y027139D01*
X034211Y027078D01*
X034189Y027018D01*
X034164Y026959D01*
X034136Y026902D01*
X034104Y026847D01*
X034068Y026794D01*
X034030Y026743D01*
X033989Y026694D01*
X033945Y026648D01*
X033898Y026605D01*
X033849Y026564D01*
X033797Y026526D01*
X033743Y026492D01*
X033688Y026461D01*
X033630Y026433D01*
X033571Y026408D01*
X033511Y026387D01*
X033450Y026370D01*
X033387Y026356D01*
X033324Y026347D01*
X033261Y026340D01*
X033197Y026338D01*
X034496Y026574D02*
X034693Y026653D01*
X034732Y029842D02*
X034653Y029843D01*
X034574Y029842D01*
X033945Y031051D02*
X033945Y031732D01*
X033511Y031574D02*
X033490Y031597D01*
X033472Y031623D01*
X033456Y031650D01*
X033445Y031679D01*
X033437Y031709D01*
X033433Y031740D01*
X033432Y031771D01*
X033433Y031771D02*
X033433Y032126D01*
X033078Y031496D02*
X032330Y031496D01*
X032304Y031494D01*
X032279Y031489D01*
X032255Y031481D01*
X032231Y031470D01*
X032210Y031455D01*
X032191Y031438D01*
X032174Y031419D01*
X032159Y031398D01*
X032148Y031374D01*
X032140Y031350D01*
X032135Y031325D01*
X032133Y031299D01*
X032134Y031299D02*
X032134Y030748D01*
X033079Y031496D02*
X033106Y031499D01*
X033133Y031498D01*
X033159Y031494D01*
X033185Y031486D01*
X033210Y031475D01*
X033232Y031461D01*
X033253Y031444D01*
X033271Y031424D01*
X033287Y031402D01*
X033299Y031378D01*
X033308Y031352D01*
X033313Y031326D01*
X033315Y031299D01*
X033315Y031051D01*
X033630Y031299D02*
X033628Y031337D01*
X033622Y031376D01*
X033613Y031413D01*
X033599Y031449D01*
X033582Y031484D01*
X033562Y031516D01*
X033538Y031547D01*
X033512Y031575D01*
X033630Y031299D02*
X033630Y031051D01*
X033000Y031051D02*
X032995Y031004D01*
X032993Y030958D01*
X032995Y030911D01*
X033001Y030864D01*
X033010Y030818D01*
X033022Y030773D01*
X033038Y030729D01*
X033058Y030687D01*
X033080Y030646D01*
X033106Y030606D01*
X033134Y030569D01*
X033166Y030535D01*
X033200Y030502D01*
X033236Y030472D01*
X031582Y029528D02*
X031434Y029540D01*
X031287Y029559D01*
X031140Y029585D01*
X030995Y029618D01*
X028709Y026339D02*
X028624Y026342D01*
X028539Y026348D01*
X028454Y026359D01*
X028370Y026374D01*
X028287Y026393D01*
X028205Y026416D01*
X028124Y026443D01*
X028045Y026473D01*
X027967Y026507D01*
X027891Y026545D01*
X027816Y026587D01*
X027744Y026632D01*
X027674Y026681D01*
X027607Y026733D01*
X032370Y030314D02*
X032529Y030206D01*
X032683Y030090D01*
X032831Y029967D01*
X032973Y029837D01*
X033108Y029700D01*
X033237Y029556D01*
X033358Y029407D01*
X033472Y029251D01*
X028118Y031220D02*
X027863Y031102D01*
X027614Y030973D01*
X027371Y030833D01*
X027135Y030680D01*
X026906Y030518D01*
X026685Y030344D01*
X026473Y030160D01*
X026270Y029967D01*
X026075Y029764D01*
X025891Y029552D01*
X025717Y029332D01*
X025553Y029104D01*
X025400Y028869D01*
X025259Y028626D01*
X025129Y028377D01*
X025011Y028123D01*
X024905Y027863D01*
X024811Y027598D01*
X023629Y025197D02*
X023606Y025105D01*
X023586Y025013D01*
X023571Y024919D01*
X023561Y024826D01*
X023555Y024731D01*
X023553Y024637D01*
X023556Y024543D01*
X023563Y024448D01*
X023574Y024355D01*
X023590Y024262D01*
X023611Y024169D01*
X023635Y024078D01*
X023664Y023988D01*
X023697Y023900D01*
X023734Y023813D01*
X023776Y023728D01*
X023821Y023645D01*
X023870Y023564D01*
X023922Y023486D01*
X023979Y023410D01*
X024039Y023337D01*
X024102Y023267D01*
X024960Y022358D01*
X029102Y023464D02*
X029819Y022386D01*
X029102Y023464D02*
X029051Y023528D01*
X029003Y023595D01*
X028958Y023664D01*
X028917Y023735D01*
X028879Y023808D01*
X028845Y023883D01*
X028814Y023959D01*
X028787Y024036D01*
X028764Y024115D01*
X028744Y024195D01*
X028729Y024276D01*
X028717Y024357D01*
X028709Y024439D01*
X028705Y024521D01*
X028704Y024603D01*
X028708Y024685D01*
X034693Y026653D02*
X034788Y026693D01*
X034886Y026729D01*
X034984Y026761D01*
X035085Y026787D01*
X035186Y026809D01*
X035288Y026827D01*
X035391Y026839D01*
X035494Y026847D01*
X035598Y026850D01*
X035205Y023504D02*
X035275Y023470D01*
X035347Y023440D01*
X035420Y023414D01*
X035495Y023391D01*
X035571Y023372D01*
X035647Y023357D01*
X035724Y023346D01*
X035802Y023338D01*
X035880Y023334D01*
X035957Y023335D01*
X036035Y023339D01*
X036113Y023346D01*
X036190Y023358D01*
X036266Y023373D01*
X036342Y023393D01*
X036416Y023416D01*
X036490Y023442D01*
X036562Y023472D01*
X036632Y023506D01*
X036700Y023543D01*
X042252Y025590D02*
X045441Y025590D01*
X046779Y025590D02*
X048078Y025551D01*
X049811Y025590D02*
X051661Y025000D01*
X036504Y030472D02*
X035992Y030482D01*
X035480Y030472D01*
X039496Y027086D02*
X039917Y027093D01*
X040337Y027119D01*
X040756Y027165D01*
X039299Y029212D02*
X039063Y029208D01*
X038827Y029212D01*
X018157Y026260D02*
X018112Y026202D01*
X018070Y026143D01*
X018031Y026081D01*
X017995Y026017D01*
X017963Y025952D01*
X017934Y025885D01*
X017908Y025816D01*
X017886Y025747D01*
X017868Y025676D01*
X017853Y025605D01*
X017842Y025532D01*
X017835Y025460D01*
X017831Y025387D01*
X017832Y025314D01*
X017836Y025241D01*
X017843Y025168D01*
X017855Y025096D01*
X017870Y025025D01*
X017889Y024954D01*
X017911Y024885D01*
X017937Y024817D01*
X017967Y024750D01*
X018000Y024685D01*
X035559Y030157D02*
X036163Y030165D01*
X036767Y030152D01*
X037370Y030118D01*
X046693Y017578D02*
X047850Y018204D01*
X046692Y017578D02*
X046407Y017423D01*
X046128Y017256D01*
X045858Y017076D01*
X045595Y016885D01*
X045341Y016682D01*
X045097Y016468D01*
X044862Y016244D01*
X044637Y016009D01*
X044423Y015765D01*
X044220Y015511D01*
X040834Y026890D02*
X039102Y026850D01*
X038630Y028228D02*
X037724Y028228D01*
X033196Y026338D02*
X028708Y026338D01*
D35*
X045535Y019677D02*
X045598Y019409D01*
X046641Y021795D02*
X046464Y022047D01*
M02*
